<svg width="12" height="16" viewBox="0 0 12 16" fill="none" xmlns="http://www.w3.org/2000/svg">
<g id="Group">
<g id="Group_2">
<path id="Vector" d="M7.71013 3.55506C8.07199 3.19339 8.33903 2.79726 8.51134 2.3665C8.67789 1.93575 8.76118 1.54535 8.76118 1.19486C8.76118 1.17205 8.75972 1.14301 8.75685 1.10871C8.75383 1.0744 8.75255 1.04586 8.75255 1.02255C8.74682 1.00532 8.73965 0.973725 8.73102 0.92761C8.72242 0.881834 8.71525 0.850239 8.70949 0.833008C7.69866 1.06848 6.98087 1.4935 6.5559 2.10804C6.12515 2.72817 5.90114 3.4662 5.88391 4.32194C6.26855 4.28732 6.56719 4.23883 6.77988 4.17564C7.09002 4.07197 7.4 3.86535 7.71013 3.55506Z" fill="white"/>
<path id="Vector_2" d="M10.639 10.2142C10.2427 9.64589 10.0446 9.00549 10.0446 8.29302C10.0446 7.64415 10.2311 7.04987 10.6045 6.50984C10.8055 6.2171 11.1329 5.87823 11.5866 5.49326C11.288 5.12585 10.9893 4.83884 10.6907 4.63175C10.1508 4.2589 9.53912 4.07178 8.85582 4.07178C8.44803 4.07178 7.95124 4.16974 7.36541 4.36486C6.80254 4.5603 6.39191 4.65761 6.1336 4.65761C5.93835 4.65761 5.54206 4.57145 4.94473 4.39917C4.34169 4.22686 3.83356 4.1407 3.42001 4.1407C2.43215 4.1407 1.6166 4.55422 0.973497 5.38142C0.324499 6.21996 0 7.2938 0 8.60313C0 9.99288 0.422125 11.4372 1.26643 12.9364C2.12204 14.4237 2.98639 15.1673 3.8594 15.1673C4.1523 15.1673 4.5312 15.0697 4.99642 14.8746C5.46164 14.6851 5.86924 14.5903 6.2196 14.5903C6.59293 14.5903 7.02639 14.6822 7.52046 14.8658C8.04295 15.0496 8.445 15.1414 8.72644 15.1414C9.46141 15.1414 10.1995 14.5786 10.9403 13.4531C11.4228 12.7353 11.776 12.0173 12 11.2995C11.4889 11.1446 11.0353 10.7828 10.639 10.2142Z" fill="white"/>
</g>
</g>
</svg>
