<svg width="40" height="40" viewBox="0 0 40 40" fill="none" xmlns="http://www.w3.org/2000/svg">
<g id="circle-check">
<path id="Vector" d="M2.90474 20.5705C2.90432 17.8866 3.61044 15.2499 4.95211 12.9254C6.29378 10.601 8.22372 8.67066 10.5479 7.32853C12.8721 5.98641 15.5087 5.27978 18.1926 5.27967C20.8765 5.27957 23.5131 5.98599 25.8374 7.32793C26.1565 7.50933 26.5343 7.55717 26.8885 7.46101C27.2427 7.36485 27.5445 7.1325 27.728 6.81465C27.9115 6.49681 27.9619 6.11928 27.868 5.76446C27.7742 5.40963 27.5439 5.10632 27.2273 4.9207C23.7828 2.93204 19.7784 2.13548 15.8351 2.65456C11.8918 3.17364 8.22996 4.97936 5.41748 7.79166C2.605 10.604 0.799049 14.2657 0.279715 18.209C-0.23962 22.1522 0.556681 26.1567 2.54512 29.6013C4.53356 33.0459 7.60302 35.7381 11.2775 37.2604C14.9519 38.7828 19.026 39.0502 22.8679 38.0211C26.7098 36.9921 30.1048 34.7241 32.5264 31.569C34.948 28.4138 36.2608 24.5478 36.2614 20.5705C36.2614 20.2019 36.1149 19.8484 35.8543 19.5877C35.5936 19.3271 35.2401 19.1806 34.8715 19.1806C34.5029 19.1806 34.1494 19.3271 33.8887 19.5877C33.6281 19.8484 33.4816 20.2019 33.4816 20.5705C33.4816 24.6253 31.8709 28.5139 29.0038 31.3811C26.1366 34.2482 22.2479 35.859 18.1932 35.859C14.1384 35.859 10.2498 34.2482 7.38263 31.3811C4.51549 28.5139 2.90474 24.6253 2.90474 20.5705Z" fill="#008471"/>
<path id="Vector_2" d="M39.4735 8.4297C39.6007 8.30373 39.7017 8.15418 39.7705 7.98959C39.8394 7.82501 39.8749 7.6486 39.8749 7.47046C39.8749 7.29231 39.8394 7.11591 39.7705 6.95132C39.7017 6.78674 39.6007 6.63719 39.4735 6.51122C39.3462 6.38525 39.1952 6.28533 39.0289 6.21715C38.8626 6.14898 38.6844 6.11389 38.5045 6.11389C38.3245 6.11389 38.1463 6.14898 37.9801 6.21715C37.8138 6.28533 37.6627 6.38525 37.5355 6.51122L19.3435 24.5227L12.1006 17.3501C11.9734 17.2241 11.8223 17.1242 11.656 17.056C11.4898 16.9878 11.3116 16.9527 11.1316 16.9527C10.9516 16.9527 10.7734 16.9878 10.6072 17.056C10.4409 17.1242 10.2899 17.2241 10.1626 17.3501C10.0354 17.476 9.93441 17.6256 9.86554 17.7902C9.79668 17.9547 9.76123 18.1311 9.76123 18.3093C9.76123 18.4874 9.79668 18.6638 9.86554 18.8284C9.93441 18.993 10.0354 19.1426 10.1626 19.2685L18.3745 27.3977C18.5016 27.5238 18.6526 27.6239 18.8189 27.6922C18.9852 27.7605 19.1634 27.7957 19.3435 27.7957C19.5235 27.7957 19.7017 27.7605 19.868 27.6922C20.0343 27.6239 20.1853 27.5238 20.3125 27.3977L39.4735 8.4297Z" fill="#008471"/>
</g>
</svg>
