<svg width="10" height="15" viewBox="0 0 10 15" fill="none" xmlns="http://www.w3.org/2000/svg">
<g id="file tet">
<path id="Vector" d="M2.53462 4.21411C2.42569 4.21411 2.32122 4.25738 2.2442 4.33441C2.16717 4.41143 2.1239 4.5159 2.1239 4.62483C2.1239 4.73375 2.16717 4.83822 2.2442 4.91524C2.32122 4.99227 2.42569 5.03554 2.53462 5.03554H7.46319C7.57212 5.03554 7.67658 4.99227 7.75361 4.91524C7.83063 4.83822 7.8739 4.73375 7.8739 4.62483C7.8739 4.5159 7.83063 4.41143 7.75361 4.33441C7.67658 4.25738 7.57212 4.21411 7.46319 4.21411H2.53462ZM2.1239 6.26768C2.1239 6.15875 2.16717 6.05429 2.2442 5.97726C2.32122 5.90024 2.42569 5.85697 2.53462 5.85697H7.46319C7.57212 5.85697 7.67658 5.90024 7.75361 5.97726C7.83063 6.05429 7.8739 6.15875 7.8739 6.26768C7.8739 6.37661 7.83063 6.48108 7.75361 6.5581C7.67658 6.63513 7.57212 6.6784 7.46319 6.6784H2.53462C2.42569 6.6784 2.32122 6.63513 2.2442 6.5581C2.16717 6.48108 2.1239 6.37661 2.1239 6.26768ZM2.53462 7.49983C2.42569 7.49983 2.32122 7.5431 2.2442 7.62012C2.16717 7.69714 2.1239 7.80161 2.1239 7.91054C2.1239 8.01947 2.16717 8.12394 2.2442 8.20096C2.32122 8.27798 2.42569 8.32125 2.53462 8.32125H7.46319C7.57212 8.32125 7.67658 8.27798 7.75361 8.20096C7.83063 8.12394 7.8739 8.01947 7.8739 7.91054C7.8739 7.80161 7.83063 7.69714 7.75361 7.62012C7.67658 7.5431 7.57212 7.49983 7.46319 7.49983H2.53462ZM2.53462 9.14268C2.42569 9.14268 2.32122 9.18595 2.2442 9.26298C2.16717 9.34 2.1239 9.44447 2.1239 9.5534C2.1239 9.66233 2.16717 9.76679 2.2442 9.84382C2.32122 9.92084 2.42569 9.96411 2.53462 9.96411H4.9989C5.10783 9.96411 5.2123 9.92084 5.28932 9.84382C5.36634 9.76679 5.40962 9.66233 5.40962 9.5534C5.40962 9.44447 5.36634 9.34 5.28932 9.26298C5.2123 9.18595 5.10783 9.14268 4.9989 9.14268H2.53462Z" fill="#757575"/>
<path id="Vector_2" d="M0.0703125 2.57132C0.0703125 2.13561 0.243399 1.71774 0.551494 1.40965C0.85959 1.10155 1.27746 0.928467 1.71317 0.928467L8.2846 0.928467C8.72031 0.928467 9.13818 1.10155 9.44627 1.40965C9.75437 1.71774 9.92745 2.13561 9.92745 2.57132V12.4285C9.92745 12.8642 9.75437 13.282 9.44627 13.5901C9.13818 13.8982 8.72031 14.0713 8.2846 14.0713H1.71317C1.27746 14.0713 0.85959 13.8982 0.551494 13.5901C0.243399 13.282 0.0703125 12.8642 0.0703125 12.4285V2.57132ZM8.2846 1.7499H1.71317C1.49531 1.7499 1.28638 1.83644 1.13233 1.99049C0.978284 2.14453 0.891741 2.35347 0.891741 2.57132V12.4285C0.891741 12.6463 0.978284 12.8553 1.13233 13.0093C1.28638 13.1634 1.49531 13.2499 1.71317 13.2499H8.2846C8.50245 13.2499 8.71139 13.1634 8.86544 13.0093C9.01948 12.8553 9.10603 12.6463 9.10603 12.4285V2.57132C9.10603 2.35347 9.01948 2.14453 8.86544 1.99049C8.71139 1.83644 8.50245 1.7499 8.2846 1.7499Z" fill="#757575"/>
</g>
</svg>
