<svg width="12" height="12" viewBox="0 0 12 12" fill="none" xmlns="http://www.w3.org/2000/svg">
<g id="google-play 1" clip-path="url(#clip0_323_1643)">
<g id="Group">
<g id="Group_2">
<path id="Vector" d="M2.61918 0.191913C2.14971 -0.0675727 1.59849 -0.061573 1.13202 0.195662L6.59921 5.23913L8.43586 3.40248L2.61918 0.191913Z" fill="white"/>
</g>
</g>
<g id="Group_3">
<g id="Group_4">
<path id="Vector_2" d="M0.585293 0.711426C0.451801 0.929663 0.375305 1.1794 0.375305 1.44413V10.5531C0.375305 10.8096 0.445051 11.0541 0.571044 11.2678L6.06898 5.76989L0.585293 0.711426Z" fill="white"/>
</g>
</g>
<g id="Group_5">
<g id="Group_6">
<path id="Vector_3" d="M10.871 4.74648L9.11909 3.77979L7.15045 5.74767L9.56307 7.9728L10.8717 7.25059C11.3427 6.9896 11.6247 6.52163 11.6247 5.99816C11.6239 5.47469 11.3427 5.00672 10.871 4.74648Z" fill="white"/>
</g>
</g>
<g id="Group_7">
<g id="Group_8">
<path id="Vector_4" d="M6.62018 6.27881L1.10724 11.7917C1.34648 11.9282 1.60896 12.0002 1.87295 12.0002C2.12793 12.0002 2.38442 11.9357 2.61915 11.806L8.87155 8.35544L6.62018 6.27881Z" fill="white"/>
</g>
</g>
</g>
<defs>
<clipPath id="clip0_323_1643">
<rect width="12" height="12" fill="white"/>
</clipPath>
</defs>
</svg>
