<svg width="125" height="37" viewBox="0 0 125 37" fill="none" xmlns="http://www.w3.org/2000/svg">
<g id="Grupo Fleury">
<g id="logo">
<g id="Group">
<path id="Vector" d="M0.504804 21.2939C0.649469 22.3528 0.960615 23.3703 1.63228 24.2944C2.84012 25.9559 4.72652 27.0229 6.49465 27.9805C9.37648 29.5406 16.5501 31.8947 16.6993 36.0532H16.9106V33.5758C16.751 29.1154 14.155 27.0483 10.3891 25.0653C8.41434 24.0248 6.3431 23.1249 4.47163 21.8977C3.63349 21.3481 2.81831 20.7385 2.1409 19.9919C1.78268 19.5978 1.45891 19.1807 1.20402 18.7106C1.16154 18.6322 1.12365 18.5446 1.08691 18.4536C0.962912 18.7405 0.749358 19.2982 0.612729 19.9101C0.510544 20.3733 0.450841 20.8641 0.504804 21.2939Z" fill="url(#paint0_linear_127_421)"/>
<path id="Vector_2" d="M0.504804 21.2939C0.649469 22.3528 0.960615 23.3703 1.63228 24.2944C2.84012 25.9559 4.72652 27.0229 6.49465 27.9805C9.37648 29.5406 16.5501 31.8947 16.6993 36.0532H16.9106V33.5758C16.751 29.1154 14.155 27.0483 10.3891 25.0653C8.41434 24.0248 6.3431 23.1249 4.47163 21.8977C3.63349 21.3481 2.81831 20.7385 2.1409 19.9919C1.78268 19.5978 1.45891 19.1807 1.20402 18.7106C1.16154 18.6322 1.12365 18.5446 1.08691 18.4536C0.962912 18.7405 0.749358 19.2982 0.612729 19.9101C0.510544 20.3733 0.450841 20.8641 0.504804 21.2939Z" fill="url(#paint1_linear_127_421)"/>
<path id="Vector_3" d="M2.01001 17.0629C2.66675 16.307 3.45667 15.6906 4.28448 15.134C6.13873 13.8873 8.20193 12.9839 10.1744 11.9526C14.0115 9.94541 16.7475 7.8967 16.9106 3.33031V0.851807H16.6993C16.5512 5.00684 9.36959 7.37242 6.49121 8.9222C4.72766 9.87166 2.83323 10.9525 1.62998 12.6071C0.375064 14.3355 0.373915 16.3946 0.375064 18.4491C0.376212 19.4089 0.378508 20.3676 0.504803 21.294C0.37736 20.295 0.87106 18.9572 1.08806 18.4548C1.12595 18.3615 1.16498 18.2705 1.20861 18.1898C1.43135 17.7807 1.70461 17.4132 2.01001 17.0629Z" fill="url(#paint2_linear_127_421)"/>
<g id="Group_2">
<path id="Vector_4" d="M3.8057 26.3627C2.8803 25.7048 2.17075 25.0284 1.63687 24.2944C1.04328 23.4786 0.688504 22.5442 0.518579 21.3539C0.463469 20.9736 0.437061 20.6211 0.437061 20.2754C0.437061 19.5057 0.662097 18.8811 0.88254 18.373C0.926169 18.2612 0.96865 18.1667 1.01228 18.0884C1.22354 17.7001 1.48646 17.3291 1.84009 16.9223C2.42334 16.2517 3.1593 15.626 4.15589 14.9566C5.50036 14.052 6.96998 13.3192 8.39138 12.6117C8.94593 12.3352 9.51426 12.0517 10.0665 11.7637C14.1459 9.62969 16.759 7.56369 16.9106 3.3257L16.906 0.851807H16.8956L16.9014 3.32916C16.7452 7.67431 14.3135 9.78063 10.1653 11.9515C9.6107 12.2407 9.04122 12.5253 8.49012 12.7995C7.07101 13.507 5.60714 14.2364 4.27415 15.1329C3.29363 15.792 2.57031 16.405 1.99968 17.0617C1.65639 17.4581 1.4015 17.8153 1.19713 18.1909C1.15809 18.2612 1.11906 18.3488 1.07772 18.4548C0.865318 18.9468 0.606986 19.7062 0.606986 20.4367C0.606986 20.719 0.590912 20.9633 0.652912 21.3965C0.818244 22.5511 1.19139 23.5512 1.76316 24.3382C2.28327 25.0526 2.89982 25.7186 3.8057 26.3627Z" fill="url(#paint3_linear_127_421)"/>
</g>
<g id="Group_3">
<path id="Vector_5" d="M1.20517 18.7118C1.24421 18.7844 1.28898 18.8558 1.33261 18.9273C1.28095 18.8409 1.22813 18.7533 1.18565 18.6749L1.20517 18.7118Z" fill="url(#paint4_linear_127_421)"/>
<path id="Vector_6" d="M16.9106 33.5771C16.7556 29.2492 14.4019 27.1798 10.3891 25.0665C9.79441 24.7531 9.1813 24.4478 8.58886 24.1528L8.56016 24.139C7.18928 23.4568 5.77133 22.7517 4.47278 21.899C3.44519 21.2249 2.72761 20.6373 2.14205 19.9931C1.80335 19.621 1.54387 19.2764 1.33261 18.9285C1.56798 19.3237 1.88143 19.78 2.22587 20.1591C2.8229 20.817 3.54853 21.3943 4.59104 22.0787C5.90107 22.9372 7.08939 23.6446 8.46946 24.3302L8.49471 24.3429C9.08715 24.6379 9.69911 24.9421 10.2916 25.2543C14.2366 27.3307 16.5489 29.3598 16.7005 33.5805L16.6959 35.9484V36.0544H16.9117V35.9484H16.9071L16.9106 33.5771Z" fill="url(#paint5_linear_127_421)"/>
</g>
<path id="Vector_7" d="M16.6798 13.2339C16.5386 17.1919 9.88281 19.5275 7.1135 20.9701C3.27411 22.9693 0.538097 25.0353 0.375061 29.5959V32.0733H0.586319C0.72754 28.1164 7.38331 25.7796 10.1526 24.337C13.992 22.3379 16.7269 20.2707 16.8899 15.7112V13.2339H16.6798Z" fill="url(#paint6_linear_127_421)"/>
<g id="Group_4">
<path id="Vector_8" d="M0.590912 32.0733H0.379654V31.9673C0.595504 28.5831 5.30977 26.3858 8.42812 24.9316C9.04352 24.6447 9.6084 24.382 10.055 24.1481C14.1344 22.0233 16.7429 19.9608 16.8945 15.7067L16.8899 13.2328H16.8853L16.8899 15.7101C16.7338 20.0726 14.302 22.1754 10.1526 24.3359C9.7014 24.571 9.13422 24.836 8.53374 25.116C5.4441 26.5563 0.798725 28.7214 0.590912 31.9731V32.0733Z" fill="url(#paint7_linear_127_421)"/>
</g>
</g>
<g id="Group_5">
<path id="Vector_9" d="M34.9237 14.6755L34.5896 15.3334C34.4381 15.2654 32.9937 14.5925 31.368 14.5925C28.2818 14.5925 26.0303 17.0342 26.0303 19.8145C26.0303 22.6756 28.2106 25.0331 31.2164 25.0331C32.2899 25.0331 33.6332 24.7485 34.8755 23.6527V20.7052H31.5517V19.9643H35.662V23.9557C34.1706 25.4191 32.6585 25.842 31.2164 25.842C27.7915 25.842 25.1588 23.1641 25.1588 19.8134C25.1588 16.4776 27.842 13.7848 31.2853 13.7848C32.4908 13.7848 33.8847 14.1535 34.9237 14.6755Z" fill="#A70E13"/>
<path id="Vector_10" d="M38.8504 16.9661L39.0008 18.6173C39.4715 17.4708 40.545 16.95 41.7873 16.95V17.8418C40.3441 17.8418 39.0525 18.6011 39.0525 20.4367V25.7082H38.2143V16.9672H38.8504V16.9661Z" fill="#A70E13"/>
<path id="Vector_11" d="M44.606 16.9489V22.0845C44.606 23.8693 45.3454 25.0308 47.458 25.0308C48.9873 25.0308 50.295 23.7368 50.295 22.1686V16.9489H51.1343V25.706H50.4971L50.3628 24.0041C49.7589 25.2497 48.6015 25.8397 47.326 25.8397C44.908 25.8397 43.7667 24.5088 43.7667 22.2008V16.9489H44.606Z" fill="#A70E13"/>
<path id="Vector_12" d="M62.5285 21.3286C62.5285 23.7183 60.8327 25.8408 58.3137 25.8408C56.906 25.8408 55.4112 25.1172 54.8911 23.7379V28.5693H54.0506V16.9488H54.7062L54.8417 18.986C55.5122 17.4351 57.0553 16.8129 58.3125 16.8129C60.7649 16.814 62.5285 18.8512 62.5285 21.3286ZM54.8072 21.3286C54.8072 23.4833 56.3159 25.0826 58.231 25.0826C60.1771 25.0826 61.6869 23.4164 61.6869 21.3286C61.6869 19.2234 60.1771 17.5711 58.231 17.5711C56.301 17.5711 54.8072 19.2234 54.8072 21.3286Z" fill="#A70E13"/>
<path id="Vector_13" d="M68.7847 16.814C71.2693 16.814 73.2659 18.7855 73.2659 21.3297C73.2659 23.8381 71.2693 25.8419 68.7847 25.8419C66.3334 25.8419 64.3391 23.8381 64.3391 21.3297C64.3391 18.8028 66.3346 16.814 68.7847 16.814ZM65.1761 21.3285C65.1761 23.383 66.7697 25.0825 68.7847 25.0825C70.8169 25.0825 72.4266 23.383 72.4266 21.3285C72.4266 19.2383 70.8169 17.571 68.7847 17.571C66.7697 17.571 65.1761 19.2395 65.1761 21.3285Z" fill="#A70E13"/>
<path id="Vector_14" d="M83.8035 13.9185V16.1077H77.8286V19.0045H82.9149V21.127H77.8286V25.7072H75.4784V13.9185H83.8035Z" fill="#ED1C24"/>
<path id="Vector_15" d="M87.5763 13.3792V23.3323C87.5763 23.5513 87.6957 23.6354 87.8806 23.6354C88.1171 23.6354 88.3341 23.6192 88.6866 23.5858V25.4191C88.6188 25.4721 87.7118 25.7071 87.0068 25.7071C85.8507 25.7071 85.2789 24.9489 85.2789 23.9223V13.3792H87.5763Z" fill="#ED1C24"/>
<path id="Vector_16" d="M94.038 16.7806C96.7396 16.7806 98.0473 18.8847 98.0473 21.2099C98.0473 21.7999 97.9647 22.2204 97.9647 22.2204H92.1069C92.2091 23.4672 93.2826 23.9384 94.3239 23.9384C95.3148 23.9384 96.2195 23.67 96.7901 23.4165L97.5605 25.1172C96.688 25.6196 95.448 25.8742 94.2723 25.8742C91.6361 25.8742 89.7073 24.0894 89.7073 21.4116C89.7084 18.7176 91.4536 16.7806 94.038 16.7806ZM95.8659 20.6038C95.8177 19.644 95.448 18.8028 94.1712 18.8028C93.0793 18.8028 92.294 19.4262 92.0736 20.6038H95.8659Z" fill="#ED1C24"/>
<path id="Vector_17" d="M101.856 16.9489V22.0845C101.856 23.1134 102.377 23.6504 103.501 23.6504C104.423 23.6504 105.178 23.1803 105.178 22.119V16.9489H107.526V25.706H105.731L105.445 24.7116C104.874 25.4709 104.054 25.8742 102.963 25.8742C100.698 25.8742 99.5422 24.5445 99.5422 22.202V16.9489H101.856Z" fill="#ED1C24"/>
<path id="Vector_18" d="M111.453 17.0341L111.755 18.4156C112.291 17.3037 113.198 16.95 114.742 16.95V19.3409C114.641 19.3409 114.559 19.3409 114.457 19.3409C112.978 19.3409 111.921 19.9136 111.921 21.8009V25.7082H109.607V17.0352H111.453V17.0341Z" fill="#ED1C24"/>
<path id="Vector_19" d="M117.527 16.9488L119.676 23.2643H119.727L121.94 16.9488H124.374L120.631 26.2613C119.978 27.8779 119.34 28.5681 117.914 28.5681C117.307 28.5681 116.687 28.484 116.033 28.2812L116.437 26.1772C116.737 26.2279 117.461 26.3443 117.845 26.3293C118.198 26.3293 118.364 25.9917 118.484 25.6552L115.093 16.9476H117.527V16.9488Z" fill="#ED1C24"/>
</g>
</g>
</g>
<defs>
<linearGradient id="paint0_linear_127_421" x1="0.484332" y1="27.2549" x2="16.9108" y2="27.2549" gradientUnits="userSpaceOnUse">
<stop stop-color="#3E0000"/>
<stop offset="0.0281" stop-color="#540000"/>
<stop offset="0.0844" stop-color="#740000"/>
<stop offset="0.1434" stop-color="#8F0406"/>
<stop offset="0.2043" stop-color="#A50D12"/>
<stop offset="0.2678" stop-color="#B71319"/>
<stop offset="0.3351" stop-color="#C4161C"/>
<stop offset="0.4085" stop-color="#CC171E"/>
<stop offset="0.5" stop-color="#CE181F"/>
<stop offset="0.5915" stop-color="#CC171E"/>
<stop offset="0.6649" stop-color="#C4161C"/>
<stop offset="0.7322" stop-color="#B71319"/>
<stop offset="0.7957" stop-color="#A50D12"/>
<stop offset="0.8566" stop-color="#8F0406"/>
<stop offset="0.9156" stop-color="#740000"/>
<stop offset="0.9719" stop-color="#540000"/>
<stop offset="1" stop-color="#3E0000"/>
</linearGradient>
<linearGradient id="paint1_linear_127_421" x1="5.96453" y1="22.0187" x2="9.62443" y2="28.5088" gradientUnits="userSpaceOnUse">
<stop stop-color="#3E0000" stop-opacity="0"/>
<stop offset="0.35"/>
<stop offset="1" stop-color="#3E0000" stop-opacity="0"/>
</linearGradient>
<linearGradient id="paint2_linear_127_421" x1="0.375064" y1="11.0731" x2="16.9108" y2="11.0731" gradientUnits="userSpaceOnUse">
<stop stop-color="#9E0B0F"/>
<stop offset="0.0228" stop-color="#AB0F14"/>
<stop offset="0.0698" stop-color="#C2151C"/>
<stop offset="0.1192" stop-color="#D41920"/>
<stop offset="0.1716" stop-color="#E01B22"/>
<stop offset="0.2288" stop-color="#E91C24"/>
<stop offset="0.3" stop-color="#ED1C24"/>
<stop offset="0.3633" stop-color="#ED2225"/>
<stop offset="0.4142" stop-color="#EE3229"/>
<stop offset="0.4605" stop-color="#EF4632"/>
<stop offset="0.5" stop-color="#F15B40"/>
<stop offset="0.5633" stop-color="#F1583E"/>
<stop offset="0.6142" stop-color="#F04E37"/>
<stop offset="0.6605" stop-color="#EF3C2D"/>
<stop offset="0.7" stop-color="#ED1C24"/>
<stop offset="0.7712" stop-color="#E91C24"/>
<stop offset="0.8284" stop-color="#E01B22"/>
<stop offset="0.8808" stop-color="#D41920"/>
<stop offset="0.9302" stop-color="#C2151C"/>
<stop offset="0.9772" stop-color="#AB0F14"/>
<stop offset="1" stop-color="#9E0B0F"/>
</linearGradient>
<linearGradient id="paint3_linear_127_421" x1="1.60133" y1="20.8578" x2="6.09746" y2="17.1585" gradientUnits="userSpaceOnUse">
<stop stop-color="#ED1B34"/>
<stop offset="1" stop-color="#9E0B0F"/>
</linearGradient>
<linearGradient id="paint4_linear_127_421" x1="1.18535" y1="18.8017" x2="1.33238" y2="18.8017" gradientUnits="userSpaceOnUse">
<stop stop-color="#9E0B0F"/>
<stop offset="1" stop-color="#ED1B34"/>
</linearGradient>
<linearGradient id="paint5_linear_127_421" x1="1.33239" y1="27.4912" x2="16.9108" y2="27.4912" gradientUnits="userSpaceOnUse">
<stop stop-color="#9E0B0F"/>
<stop offset="1" stop-color="#ED1B34"/>
</linearGradient>
<linearGradient id="paint6_linear_127_421" x1="0.375189" y1="22.6532" x2="16.8904" y2="22.6532" gradientUnits="userSpaceOnUse">
<stop stop-color="#9E0B0F"/>
<stop offset="0.0228" stop-color="#AB0F14"/>
<stop offset="0.0698" stop-color="#C2151C"/>
<stop offset="0.1192" stop-color="#D41920"/>
<stop offset="0.1716" stop-color="#E01B22"/>
<stop offset="0.2288" stop-color="#E91C24"/>
<stop offset="0.3" stop-color="#ED1C24"/>
<stop offset="0.3633" stop-color="#ED2225"/>
<stop offset="0.4142" stop-color="#EE3229"/>
<stop offset="0.4605" stop-color="#EF4632"/>
<stop offset="0.5" stop-color="#F15B40"/>
<stop offset="0.5633" stop-color="#F1583E"/>
<stop offset="0.6142" stop-color="#F04E37"/>
<stop offset="0.6605" stop-color="#EF3C2D"/>
<stop offset="0.7" stop-color="#ED1C24"/>
<stop offset="0.7712" stop-color="#E91C24"/>
<stop offset="0.8284" stop-color="#E01B22"/>
<stop offset="0.8808" stop-color="#D41920"/>
<stop offset="0.9302" stop-color="#C2151C"/>
<stop offset="0.9772" stop-color="#AB0F14"/>
<stop offset="1" stop-color="#9E0B0F"/>
</linearGradient>
<linearGradient id="paint7_linear_127_421" x1="0.631958" y1="27.3889" x2="8.91418" y2="22.5851" gradientUnits="userSpaceOnUse">
<stop stop-color="#ED1B34"/>
<stop offset="1" stop-color="#9E0B0F"/>
</linearGradient>
</defs>
</svg>
