<svg width="16" height="16" viewBox="0 0 16 16" fill="none" xmlns="http://www.w3.org/2000/svg">
<g id="loading">
<path id="icon/loading (Stroke)" fill-rule="evenodd" clip-rule="evenodd" d="M11.0615 15.391C9.59966 15.9965 7.99113 16.155 6.43928 15.8463C4.88743 15.5376 3.46197 14.7757 2.34315 13.6569C1.22433 12.538 0.462403 11.1126 0.153721 9.56072C-0.154961 8.00887 0.00346661 6.40034 0.608968 4.93853C1.21447 3.47672 2.23985 2.22729 3.55544 1.34824C4.87103 0.469192 6.41775 0 8 0C8.5763 0 9.04348 0.467181 9.04348 1.04348C9.04348 1.61977 8.5763 2.08696 8 2.08696C6.83051 2.08696 5.68729 2.43375 4.71489 3.08348C3.7425 3.73322 2.98461 4.65671 2.53706 5.73717C2.08952 6.81764 1.97242 8.00656 2.20058 9.15358C2.42873 10.3006 2.9919 11.3542 3.81885 12.1812C4.6458 13.0081 5.69941 13.5713 6.84642 13.7994C7.99344 14.0276 9.18236 13.9105 10.2628 13.4629C11.3433 13.0154 12.2668 12.2575 12.9165 11.2851C13.5662 10.3127 13.913 9.16949 13.913 8C13.913 7.4237 14.3802 6.95652 14.9565 6.95652C15.5328 6.95652 16 7.4237 16 8C16 9.58225 15.5308 11.129 14.6518 12.4446C13.7727 13.7602 12.5233 14.7855 11.0615 15.391Z" fill="#BF1218"/>
</g>
</svg>
