<svg width="24" height="24" viewBox="0 0 24 24" fill="none" xmlns="http://www.w3.org/2000/svg">
<g id="menu">
<path id="Vector" d="M1.33333 19.75H22.6667C23.4 19.75 24 19.15 24 18.4167C24 17.6833 23.4 17.0833 22.6667 17.0833H1.33333C0.6 17.0833 0 17.6833 0 18.4167C0 19.15 0.6 19.75 1.33333 19.75ZM1.33333 13.0833H22.6667C23.4 13.0833 24 12.4833 24 11.75C24 11.0167 23.4 10.4167 22.6667 10.4167H1.33333C0.6 10.4167 0 11.0167 0 11.75C0 12.4833 0.6 13.0833 1.33333 13.0833ZM0 5.08333C0 5.81667 0.6 6.41667 1.33333 6.41667H22.6667C23.4 6.41667 24 5.81667 24 5.08333C24 4.35 23.4 3.75 22.6667 3.75H1.33333C0.6 3.75 0 4.35 0 5.08333Z" fill="#EA1B23"/>
</g>
</svg>
